# Blender v2.92.0 OBJ File: ''
# www.blender.org
mtllib clawgame.mtl
o Cube_Cube.001
v -4.969173 -0.130657 4.969173
v -4.735713 0.130657 4.735713
v -4.969173 -0.130657 -4.969173
v -4.735713 0.130657 -4.735713
v 4.969173 -0.130657 4.969173
v 4.735713 0.130657 4.735713
v 4.969173 -0.130657 -4.969173
v 4.735713 0.130657 -4.735713
v 0.993407 -0.130657 -4.969173
v 0.993407 0.130657 -4.735713
v 0.993407 -0.130657 4.969173
v 0.993407 0.130657 4.735713
v -0.163453 -0.130657 -4.969173
v -0.163453 0.130657 4.735713
v -0.163453 0.130657 -4.735713
v -0.163453 -0.130657 4.969173
v -4.969173 -0.130657 0.814202
v -4.735713 0.130657 0.814202
v 4.969173 -0.130657 0.814202
v 4.735713 0.130657 0.814202
v 0.993407 0.272814 0.814202
v 0.993407 -0.130657 0.814202
v -0.163453 -0.130657 0.814202
v -0.163453 0.272814 0.814202
v -4.735713 0.130657 -0.287389
v 4.969173 -0.130657 -0.287389
v -4.969173 -0.130657 -0.287389
v 4.735713 0.130657 -0.287389
v 1.226867 0.130657 -0.520848
v 0.993407 -0.130657 -0.287389
v -0.163453 -0.130657 -0.287389
v -0.396912 0.130657 -0.520848
v -4.969173 0.130657 -0.287389
v -4.969173 0.130657 -4.969173
v 0.993407 0.130657 -4.969173
v 4.969173 0.130657 -4.969173
v 4.969173 0.130657 0.814202
v 4.969173 0.130657 4.969173
v -0.163453 0.130657 4.969173
v -4.969173 0.130657 4.969173
v -0.163453 0.130657 -4.969173
v 0.993407 0.130657 4.969173
v -4.969173 0.130657 0.814202
v 4.969173 0.130657 -0.287389
v 0.993407 0.272814 -0.287389
v 1.226867 0.130657 1.047661
v -0.163453 0.272814 -0.287389
v -0.396912 0.130657 1.047661
v -5.857957 0.572235 -0.352678
v -5.857957 0.572235 -5.849165
v 1.142205 0.572235 -5.849165
v 5.809815 0.572235 -5.849165
v 5.809815 0.572235 0.940606
v 5.809815 0.572235 5.818607
v -0.215967 0.572235 5.818607
v -5.857957 0.572235 5.818607
v -0.215967 0.572235 -5.849165
v 1.142205 0.572235 5.818607
v -5.857957 0.572235 0.940606
v 5.809815 0.572235 -0.352678
v -5.583872 0.572235 -0.352678
v -5.583872 0.572235 -5.575080
v 1.142205 0.572235 -5.575080
v 5.535730 0.572235 -5.575080
v 5.535730 0.572235 0.940606
v 5.535730 0.572235 5.544521
v -0.215967 0.572235 5.544521
v -5.583872 0.572235 5.544521
v -0.215967 0.572235 -5.575080
v 1.142205 0.572235 5.544521
v -5.583872 0.572235 0.940606
v 5.535730 0.572235 -0.352678
vt 0.375000 0.132229
vt 0.625000 0.132229
vt 0.625000 0.250000
vt 0.375000 0.250000
vt 0.375000 0.399989
vt 0.625000 0.399989
vt 0.625000 0.500000
vt 0.375000 0.500000
vt 0.375000 0.645481
vt 0.625000 0.645481
vt 0.625000 0.750000
vt 0.375000 0.750000
vt 0.375000 0.879112
vt 0.625000 0.879112
vt 0.625000 1.000000
vt 0.375000 1.000000
vt 0.274989 0.645481
vt 0.274989 0.750000
vt 0.759984 0.651354
vt 0.869127 0.645481
vt 0.869127 0.744127
vt 0.754112 0.744127
vt 0.630873 0.645481
vt 0.719138 0.651354
vt 0.725011 0.744127
vt 0.630873 0.744127
vt 0.245888 0.645481
vt 0.245888 0.750000
vt 0.625000 0.850011
vt 0.375000 0.850011
vt 0.375000 0.370888
vt 0.625000 0.370888
vt 0.125000 0.645481
vt 0.125000 0.750000
vt 0.245888 0.617771
vt 0.754112 0.617771
vt 0.754112 0.645481
vt 0.125000 0.617771
vt 0.274989 0.617771
vt 0.725011 0.617771
vt 0.630873 0.617771
vt 0.719138 0.611898
vt 0.759984 0.611898
vt 0.869127 0.617771
vt 0.375000 0.617771
vt 0.625000 0.617771
vt 0.375000 0.000000
vt 0.625000 0.000000
vt 0.625000 0.104519
vt 0.375000 0.104519
vt 0.274989 0.500000
vt 0.754112 0.505873
vt 0.869127 0.505873
vt 0.630873 0.505873
vt 0.725011 0.505873
vt 0.245888 0.500000
vt 0.125000 0.500000
vt 0.725011 0.645481
vt 0.630873 0.744127
vt 0.630873 0.645481
vt 0.630873 0.617771
vt 0.625000 0.850011
vt 0.625000 0.879112
vt 0.630873 0.505873
vt 0.725011 0.505873
vt 0.625000 0.370888
vt 0.625000 0.399989
vt 0.869127 0.645481
vt 0.869127 0.744127
vt 0.625000 0.500000
vt 0.869127 0.505873
vt 0.869127 0.617771
vt 0.754112 0.505873
vt 0.625000 1.000000
vt 0.754112 0.744127
vt 0.725011 0.744127
vt 0.875000 0.500000
vt 0.875000 0.617771
vt 0.725011 0.500000
vt 0.625000 0.750000
vt 0.625000 0.645481
vt 0.875000 0.750000
vt 0.754112 0.750000
vt 0.754112 0.500000
vt 0.725011 0.750000
vt 0.875000 0.645481
vt 0.625000 0.617771
vt 0.625000 0.000000
vt 0.625000 0.104519
vt 0.625000 0.132229
vt 0.625000 0.250000
vn -1.0000 0.0000 0.0000
vn 0.0000 0.0000 -1.0000
vn 1.0000 0.0000 0.0000
vn 0.0000 0.0000 1.0000
vn 0.0000 -1.0000 0.0000
vn 0.0000 1.0000 0.0000
vn -0.4832 0.8755 0.0000
vn 0.0000 -0.8873 0.4612
vn 0.0000 0.8850 0.4656
vn 0.0000 -0.8938 -0.4485
vn 0.4618 0.8870 0.0000
vn 0.5201 0.8541 0.0000
vn -0.5201 0.8541 0.0000
vn 0.0000 0.8541 0.5201
vn 0.0000 0.8777 -0.4792
vn 0.0000 0.8541 -0.5201
vn -0.4449 -0.8956 0.0000
vn 0.4650 -0.8853 0.0000
usemtl None
s off
f 27/1/1 33/2/1 34/3/1 3/4/1
f 9/5/2 35/6/2 36/7/2 7/8/2
f 19/9/3 37/10/3 38/11/3 5/12/3
f 16/13/4 39/14/4 40/15/4 1/16/4
f 22/17/5 19/9/5 5/12/5 11/18/5
f 48/19/6 18/20/6 2/21/6 14/22/6
f 20/23/6 46/24/6 12/25/6 6/26/6
f 23/27/5 22/17/5 11/18/5 16/28/5
f 5/12/4 38/11/4 42/29/4 11/30/4
f 13/31/2 41/32/2 35/6/2 9/5/2
f 3/4/2 34/3/2 41/32/2 13/31/2
f 17/33/5 23/27/5 16/28/5 1/34/5
f 46/24/6 48/19/6 14/22/6 12/25/6
f 11/30/4 42/29/4 39/14/4 16/13/4
f 23/27/3 31/35/3 47/36/3 24/37/3
f 27/38/5 31/35/5 23/27/5 17/33/5
f 30/39/4 45/40/4 47/36/4 31/35/4
f 28/41/6 29/42/6 46/24/6 20/23/6
f 32/43/6 25/44/6 18/20/6 48/19/6
f 30/39/5 26/45/5 19/9/5 22/17/5
f 26/45/3 44/46/3 37/10/3 19/9/3
f 1/47/1 40/48/1 43/49/1 17/50/1
f 7/8/3 36/7/3 44/46/3 26/45/3
f 9/51/5 7/8/5 26/45/5 30/39/5
f 15/52/6 4/53/6 25/44/6 32/43/6
f 8/54/6 10/55/6 29/42/6 28/41/6
f 13/56/5 9/51/5 30/39/5 31/35/5
f 3/57/5 13/56/5 31/35/5 27/38/5
f 10/55/6 15/52/6 32/43/6 29/42/6
f 17/50/1 43/49/1 33/2/1 27/1/1
f 24/37/2 21/58/2 22/17/2 23/27/2
f 21/58/1 45/40/1 30/39/1 22/17/1
f 20/23/7 6/26/7 66/59/7 65/60/7
f 28/41/7 20/23/7 65/60/7 72/61/7
f 39/14/8 42/29/8 58/62/8 55/63/8
f 10/55/9 8/54/9 64/64/9 63/65/9
f 35/6/10 41/32/10 57/66/10 51/67/10
f 2/21/11 18/20/11 71/68/11 68/69/11
f 36/7/10 35/6/10 51/67/10 52/70/10
f 25/44/11 4/53/11 62/71/11 61/72/11
f 4/53/9 15/52/9 69/73/9 62/71/9
f 8/54/7 28/41/7 72/61/7 64/64/7
f 46/24/12 29/42/12 45/40/12 21/58/12
f 32/43/13 48/19/13 24/37/13 47/36/13
f 48/19/14 46/24/14 21/58/14 24/37/14
f 40/15/8 39/14/8 55/63/8 56/74/8
f 12/25/15 14/22/15 67/75/15 70/76/15
f 29/42/16 32/43/16 47/36/16 45/40/16
f 61/72/6 62/71/6 50/77/6 49/78/6
f 63/65/6 64/64/6 52/70/6 51/79/6
f 65/60/6 66/59/6 54/80/6 53/81/6
f 67/75/6 68/69/6 56/82/6 55/83/6
f 69/73/6 63/65/6 51/79/6 57/84/6
f 66/59/6 70/76/6 58/85/6 54/80/6
f 70/76/6 67/75/6 55/83/6 58/85/6
f 62/71/6 69/73/6 57/84/6 50/77/6
f 68/69/6 71/68/6 59/86/6 56/82/6
f 72/61/6 65/60/6 53/81/6 60/87/6
f 71/68/6 61/72/6 49/78/6 59/86/6
f 64/64/6 72/61/6 60/87/6 52/70/6
f 43/49/17 40/48/17 56/88/17 59/89/17
f 33/2/17 43/49/17 59/89/17 49/90/17
f 41/32/10 34/3/10 50/91/10 57/66/10
f 42/29/8 38/11/8 54/80/8 58/62/8
f 14/22/15 2/21/15 68/69/15 67/75/15
f 38/11/18 37/10/18 53/81/18 54/80/18
f 15/52/9 10/55/9 63/65/9 69/73/9
f 37/10/18 44/46/18 60/87/18 53/81/18
f 34/3/17 33/2/17 49/90/17 50/91/17
f 6/26/15 12/25/15 70/76/15 66/59/15
f 44/46/18 36/7/18 52/70/18 60/87/18
f 18/20/11 25/44/11 61/72/11 71/68/11
