# Blender v2.92.0 OBJ File: ''
# www.blender.org
mtllib ladder1.mtl
o Cube_Cube.001
v 1.000000 -0.500000 0.100000
v 1.000000 0.500000 0.100000
v 1.000000 -0.500000 -0.100000
v 1.000000 0.500000 -0.100000
v 1.000000 0.303197 -0.100000
v 1.000000 0.303197 0.100000
v 0.791580 0.500000 -0.100000
v 0.791580 -0.500000 0.100000
v 0.791580 -0.500000 -0.100000
v 0.791580 0.500000 0.100000
v 0.791580 0.303197 0.100000
v 0.791580 0.303197 -0.100000
v 1.000000 0.500000 0.100000
v 1.000000 1.500000 0.100000
v 1.000000 0.500000 -0.100000
v 1.000000 1.500000 -0.100000
v 1.000000 1.303197 -0.100000
v 1.000000 1.303197 0.100000
v 0.791580 1.500000 -0.100000
v 0.791580 0.500000 0.100000
v 0.791580 0.500000 -0.100000
v 0.791580 1.500000 0.100000
v 0.791580 1.303197 0.100000
v 0.791580 1.303197 -0.100000
v -1.000000 -0.500000 0.100000
v -1.000000 0.500000 0.100000
v -1.000000 -0.500000 -0.100000
v -1.000000 0.500000 -0.100000
v 0.000000 0.500000 -0.100000
v 0.000000 0.500000 0.100000
v -1.000000 0.303197 -0.100000
v -1.000000 0.303197 0.100000
v 0.000000 0.303197 0.100000
v 0.000000 0.303197 -0.100000
v -0.791580 0.500000 -0.100000
v -0.791580 -0.500000 0.100000
v -0.791580 -0.500000 -0.100000
v -0.791580 0.500000 0.100000
v -0.791580 0.303197 0.100000
v -0.791580 0.303197 -0.100000
v -1.000000 0.500000 0.100000
v -1.000000 1.500000 0.100000
v -1.000000 0.500000 -0.100000
v -1.000000 1.500000 -0.100000
v 0.000000 1.500000 -0.100000
v 0.000000 1.500000 0.100000
v -1.000000 1.303197 -0.100000
v -1.000000 1.303197 0.100000
v 0.000000 1.303197 0.100000
v 0.000000 1.303197 -0.100000
v -0.791580 1.500000 -0.100000
v -0.791580 0.500000 0.100000
v -0.791580 0.500000 -0.100000
v -0.791580 1.500000 0.100000
v -0.791580 1.303197 0.100000
v -0.791580 1.303197 -0.100000
vt 0.575799 0.473948
vt 0.625000 0.473948
vt 0.625000 0.500000
vt 0.575799 0.500000
vt 0.625000 0.750000
vt 0.575799 0.750000
vt 0.348948 0.500000
vt 0.375000 0.500000
vt 0.375000 0.750000
vt 0.348948 0.750000
vt 0.651052 0.500000
vt 0.750000 0.500000
vt 0.750000 0.750000
vt 0.651052 0.750000
vt 0.575799 0.776052
vt 0.625000 0.776052
vt 0.625000 0.875000
vt 0.575799 0.875000
vt 0.375000 0.473948
vt 0.375000 0.776052
vt 0.575799 0.375000
vt 0.625000 0.375000
vt 0.575799 0.473948
vt 0.625000 0.473948
vt 0.625000 0.500000
vt 0.575799 0.500000
vt 0.625000 0.750000
vt 0.575799 0.750000
vt 0.348948 0.500000
vt 0.375000 0.500000
vt 0.375000 0.750000
vt 0.348948 0.750000
vt 0.651052 0.500000
vt 0.750000 0.500000
vt 0.750000 0.750000
vt 0.651052 0.750000
vt 0.575799 0.776052
vt 0.625000 0.776052
vt 0.625000 0.875000
vt 0.575799 0.875000
vt 0.375000 0.473948
vt 0.375000 0.776052
vt 0.575799 0.375000
vt 0.625000 0.375000
vt 0.575799 0.473948
vt 0.575799 0.500000
vt 0.625000 0.500000
vt 0.625000 0.473948
vt 0.575799 0.750000
vt 0.625000 0.750000
vt 0.348948 0.500000
vt 0.348948 0.750000
vt 0.375000 0.750000
vt 0.375000 0.500000
vt 0.651052 0.500000
vt 0.651052 0.750000
vt 0.575799 0.776052
vt 0.625000 0.776052
vt 0.375000 0.473948
vt 0.375000 0.776052
vt 0.575799 0.473948
vt 0.575799 0.500000
vt 0.625000 0.500000
vt 0.625000 0.473948
vt 0.575799 0.750000
vt 0.625000 0.750000
vt 0.348948 0.500000
vt 0.348948 0.750000
vt 0.375000 0.750000
vt 0.375000 0.500000
vt 0.651052 0.500000
vt 0.651052 0.750000
vt 0.575799 0.776052
vt 0.625000 0.776052
vt 0.375000 0.473948
vt 0.375000 0.776052
vn 0.0000 0.0000 -1.0000
vn 1.0000 0.0000 0.0000
vn 0.0000 -1.0000 0.0000
vn 0.0000 1.0000 0.0000
vn 0.0000 0.0000 1.0000
vn -1.0000 0.0000 0.0000
usemtl None
s off
f 12/1/1 7/2/1 4/3/1 5/4/1
f 5/4/2 4/3/2 2/5/2 6/6/2
f 9/7/3 3/8/3 1/9/3 8/10/3
f 7/11/4 29/12/4 30/13/4 10/14/4
f 11/15/5 10/16/5 30/17/5 33/18/5
f 3/8/2 5/4/2 6/6/2 1/9/2
f 9/19/1 12/1/1 5/4/1 3/8/1
f 11/15/6 12/1/6 9/7/6 8/20/6
f 1/9/5 6/6/5 11/15/5 8/20/5
f 6/6/5 2/5/5 10/16/5 11/15/5
f 34/21/3 12/1/3 11/15/3 33/18/3
f 34/21/1 29/22/1 7/2/1 12/1/1
f 24/23/1 19/24/1 16/25/1 17/26/1
f 17/26/2 16/25/2 14/27/2 18/28/2
f 21/29/3 15/30/3 13/31/3 20/32/3
f 19/33/4 45/34/4 46/35/4 22/36/4
f 23/37/5 22/38/5 46/39/5 49/40/5
f 15/30/2 17/26/2 18/28/2 13/31/2
f 21/41/1 24/23/1 17/26/1 15/30/1
f 23/37/6 24/23/6 21/29/6 20/42/6
f 13/31/5 18/28/5 23/37/5 20/42/5
f 18/28/5 14/27/5 22/38/5 23/37/5
f 50/43/3 24/23/3 23/37/3 49/40/3
f 50/43/1 45/44/1 19/24/1 24/23/1
f 19/33/4 22/36/4 14/27/4 16/25/4
f 40/45/1 31/46/1 28/47/1 35/48/1
f 31/46/6 32/49/6 26/50/6 28/47/6
f 37/51/3 36/52/3 25/53/3 27/54/3
f 35/55/4 38/56/4 30/13/4 29/12/4
f 39/57/5 33/18/5 30/17/5 38/58/5
f 27/54/6 25/53/6 32/49/6 31/46/6
f 37/59/1 27/54/1 31/46/1 40/45/1
f 39/57/2 36/60/2 37/51/2 40/45/2
f 25/53/5 36/60/5 39/57/5 32/49/5
f 32/49/5 39/57/5 38/58/5 26/50/5
f 34/21/3 33/18/3 39/57/3 40/45/3
f 34/21/1 40/45/1 35/48/1 29/22/1
f 56/61/1 47/62/1 44/63/1 51/64/1
f 47/62/6 48/65/6 42/66/6 44/63/6
f 53/67/3 52/68/3 41/69/3 43/70/3
f 51/71/4 54/72/4 46/35/4 45/34/4
f 55/73/5 49/40/5 46/39/5 54/74/5
f 43/70/6 41/69/6 48/65/6 47/62/6
f 53/75/1 43/70/1 47/62/1 56/61/1
f 55/73/2 52/76/2 53/67/2 56/61/2
f 41/69/5 52/76/5 55/73/5 48/65/5
f 48/65/5 55/73/5 54/74/5 42/66/5
f 50/43/3 49/40/3 55/73/3 56/61/3
f 50/43/1 56/61/1 51/64/1 45/44/1
f 51/71/4 44/63/4 42/66/4 54/72/4
